<svg width="26" height="26" viewBox="0 0 26 26" fill="none" xmlns="http://www.w3.org/2000/svg">
<g clip-path="url(#clip0_56_159)">
<path d="M23.5 2.5L15.4 10.6M23.5 2.5H16M23.5 2.5V10M2.5 16C2.5 17.9891 3.29018 19.8968 4.6967 21.3033C6.10322 22.7098 8.01088 23.5 10 23.5C11.9891 23.5 13.8968 22.7098 15.3033 21.3033C16.7098 19.8968 17.5 17.9891 17.5 16C17.5 14.0109 16.7098 12.1032 15.3033 10.6967C13.8968 9.29018 11.9891 8.5 10 8.5C8.01088 8.5 6.10322 9.29018 4.6967 10.6967C3.29018 12.1032 2.5 14.0109 2.5 16Z" stroke="#6C63FF" stroke-width="4" stroke-linecap="round" stroke-linejoin="round"/>
</g>
<defs>
<clipPath id="clip0_56_159">
<rect width="26" height="26" fill="white"/>
</clipPath>
</defs>
</svg>
