<svg width="26" height="25" viewBox="0 0 26 25" fill="none" xmlns="http://www.w3.org/2000/svg">
<path d="M12.8768 24.3258L12.4315 24.1155C10.3242 23.0367 8.36911 21.6834 6.61729 20.091C2.77417 16.6025 0.712403 12.5367 0.712403 8.33893C0.711992 6.92647 1.10395 5.54166 1.84456 4.33894C2.58517 3.13621 3.64531 2.16286 4.90677 1.52743C6.16823 0.891998 7.5814 0.619468 8.98868 0.740233C10.396 0.860998 11.7421 1.37031 12.8768 2.21137C14.0116 1.37031 15.3576 0.860998 16.7649 0.740233C18.1722 0.619468 19.5854 0.891998 20.8468 1.52743C22.1083 2.16286 23.1684 3.13621 23.9091 4.33894C24.6497 5.54166 25.0416 6.92647 25.0412 8.33893C25.0412 12.5367 22.9794 16.586 19.1363 20.0992C17.384 21.6887 15.429 23.0392 13.3221 24.1155L12.8768 24.3258ZM8.34093 2.77217C6.8652 2.77435 5.45054 3.36155 4.40704 4.40504C3.36354 5.44854 2.77635 6.8632 2.77417 8.33893C2.77417 16.0499 10.8686 20.9157 12.8768 22.0208C14.8808 20.9157 22.9794 16.0499 22.9794 8.33893C22.9801 7.25064 22.6616 6.18606 22.0632 5.27702C21.4649 4.36798 20.613 3.65443 19.6132 3.22472C18.6133 2.79502 17.5094 2.66805 16.4381 2.85953C15.3668 3.05101 14.3752 3.55254 13.586 4.302L12.8768 4.97826L12.1676 4.302C11.1356 3.31985 9.76553 2.77212 8.34093 2.77217V2.77217Z" fill="#B0B0B0"/>
</svg>
