<svg width="52" height="48" viewBox="0 0 52 48" fill="none" xmlns="http://www.w3.org/2000/svg">
<path d="M48.5411 47.435C48.3204 47.4344 48.101 47.3996 47.8909 47.332L36.4435 43.6231C36.1741 43.5385 35.9241 43.4012 35.7078 43.2192C35.4915 43.0372 35.3133 42.814 35.1834 42.5625C35.0534 42.3111 34.9744 42.0363 34.9508 41.754C34.9273 41.4717 34.9596 41.1876 35.046 40.9179C35.1323 40.6482 35.2711 40.3984 35.4541 40.1827C35.6372 39.9671 35.861 39.79 36.1126 39.6616C36.3642 39.5332 36.6386 39.456 36.9201 39.4345C37.2015 39.413 37.4845 39.4477 37.7525 39.5365L45.2814 41.9661L43.2965 35.5443C43.1275 35.0001 43.1808 34.4108 43.4447 33.906C43.7087 33.4013 44.1616 33.0224 44.7039 32.8528C45.2462 32.6831 45.8335 32.7366 46.3365 33.0015C46.8395 33.2663 47.217 33.7208 47.3861 34.265L50.5859 44.6533C50.7044 45.0273 50.7168 45.427 50.6216 45.8077C50.5264 46.1883 50.3274 46.5348 50.0469 46.8083C49.6471 47.2084 49.1058 47.4337 48.5411 47.435Z" fill="white"/>
<path d="M26.151 46.1987C12.2311 46.1987 0.912109 35.9907 0.912109 23.4475C0.912109 10.9043 12.2311 0.696289 26.151 0.696289C40.0709 0.696289 51.3899 10.9043 51.3899 23.4475C51.3754 28.0661 49.8483 32.5518 47.0437 36.2139C46.7033 36.6693 46.1966 36.9704 45.6351 37.0509C45.0735 37.1314 44.5031 36.9848 44.0493 36.6432C43.5954 36.3017 43.2954 35.7932 43.2152 35.2297C43.135 34.6662 43.2811 34.0937 43.6215 33.6383C45.8685 30.7181 47.0952 27.1369 47.1121 23.4475C47.1121 13.2653 37.701 4.98897 26.151 4.98897C14.601 4.98897 5.18989 13.2653 5.18989 23.4475C5.18989 33.6297 14.601 41.906 26.151 41.906C29.615 41.9153 33.0374 41.1498 36.1696 39.6653C36.4229 39.5435 36.6977 39.473 36.9782 39.4578C37.2587 39.4426 37.5395 39.483 37.8044 39.5767C38.0694 39.6703 38.3133 39.8155 38.5224 40.0037C38.7315 40.192 38.9015 40.4198 39.0229 40.674C39.1442 40.9283 39.2145 41.204 39.2296 41.4855C39.2448 41.767 39.2045 42.0487 39.1112 42.3146C39.0178 42.5804 38.8732 42.8253 38.6855 43.0351C38.4979 43.2448 38.2709 43.4155 38.0176 43.5373C34.3079 45.2972 30.2544 46.2064 26.151 46.1987Z" fill="white"/>
</svg>
