<svg width="23" height="22" viewBox="0 0 23 22" fill="none" xmlns="http://www.w3.org/2000/svg">
<path d="M21.7011 21.2962C21.6005 21.2959 21.5006 21.2801 21.4048 21.2493L16.1889 19.5593C16.0662 19.5208 15.9522 19.4583 15.8537 19.3753C15.7551 19.2924 15.6739 19.1907 15.6147 19.0761C15.5555 18.9615 15.5195 18.8363 15.5088 18.7077C15.498 18.5791 15.5128 18.4496 15.5521 18.3267C15.5915 18.2039 15.6547 18.09 15.7381 17.9918C15.8215 17.8935 15.9235 17.8128 16.0381 17.7543C16.1528 17.6958 16.2778 17.6606 16.4061 17.6508C16.5343 17.6411 16.6632 17.6568 16.7854 17.6973L20.2159 18.8043L19.3115 15.8783C19.2344 15.6303 19.2587 15.3618 19.379 15.1318C19.4992 14.9018 19.7056 14.7292 19.9527 14.6519C20.1998 14.5746 20.4674 14.599 20.6966 14.7196C20.9258 14.8403 21.0978 15.0474 21.1748 15.2954L22.6328 20.0288C22.6868 20.1992 22.6925 20.3813 22.6491 20.5547C22.6057 20.7282 22.515 20.886 22.3872 21.0107C22.2051 21.193 21.9584 21.2956 21.7011 21.2962V21.2962Z" fill="#A7A7A7"/>
<path d="M11.5 20.733C5.15746 20.733 0 16.0818 0 10.3665C0 4.65123 5.15746 0 11.5 0C17.8425 0 23 4.65123 23 10.3665C22.9934 12.4709 22.2976 14.5148 21.0197 16.1835C20.8646 16.391 20.6337 16.5281 20.3778 16.5648C20.1219 16.6015 19.862 16.5347 19.6553 16.3791C19.4485 16.2234 19.3118 15.9918 19.2752 15.735C19.2387 15.4782 19.3053 15.2174 19.4603 15.0099C20.4842 13.6793 21.0431 12.0475 21.0508 10.3665C21.0508 5.727 16.7627 1.95594 11.5 1.95594C6.23729 1.95594 1.94915 5.727 1.94915 10.3665C1.94915 15.006 6.23729 18.777 11.5 18.777C13.0783 18.7812 14.6378 18.4325 16.0649 17.756C16.1804 17.7006 16.3056 17.6684 16.4334 17.6615C16.5612 17.6546 16.6891 17.673 16.8098 17.7157C16.9305 17.7584 17.0417 17.8245 17.137 17.9103C17.2322 17.9961 17.3097 18.0998 17.365 18.2157C17.4203 18.3315 17.4523 18.4572 17.4592 18.5854C17.4661 18.7137 17.4478 18.842 17.4052 18.9632C17.3627 19.0843 17.2968 19.1959 17.2113 19.2915C17.1258 19.3871 17.0224 19.4648 16.9069 19.5203C15.2167 20.3222 13.3697 20.7365 11.5 20.733Z" fill="#A7A7A7"/>
</svg>
